<mxfile host="65bd71144e">
    <diagram id="rP8McBOiPVLHIZbSADEy" name="Page-1">
        <mxGraphModel dx="873" dy="787" grid="1" gridSize="10" guides="1" tooltips="1" connect="1" arrows="1" fold="1" page="1" pageScale="1" pageWidth="827" pageHeight="1169" math="0" shadow="0">
            <root>
                <mxCell id="0"/>
                <mxCell id="1" parent="0"/>
                <mxCell id="7" value="SQL(Structured Query Language)" style="swimlane;whiteSpace=wrap;html=1;fillColor=#7F00FF;" vertex="1" parent="1">
                    <mxGeometry x="40" y="20" width="730" height="580" as="geometry"/>
                </mxCell>
                <mxCell id="8" value="&lt;h1&gt;SQL&lt;/h1&gt;&lt;p&gt;A Linguagem de consulta estruturada (SQL) é uma linguagem de programação para armazenar e processar informações em um banco de dados relacional.&lt;/p&gt;" style="text;html=1;strokeColor=none;fillColor=none;spacing=5;spacingTop=-20;whiteSpace=wrap;overflow=hidden;rounded=0;" vertex="1" parent="7">
                    <mxGeometry x="10" y="30" width="160" height="140" as="geometry"/>
                </mxCell>
                <mxCell id="9" value="SQL" style="rounded=1;whiteSpace=wrap;html=1;fillColor=#0000FF;" vertex="1" parent="7">
                    <mxGeometry x="235" y="40" width="430" height="60" as="geometry"/>
                </mxCell>
                <mxCell id="13" value="DDL" style="rounded=1;whiteSpace=wrap;html=1;fillColor=#7F00FF;" vertex="1" parent="7">
                    <mxGeometry x="215" y="145" width="70" height="60" as="geometry"/>
                </mxCell>
                <mxCell id="14" value="" style="endArrow=classic;html=1;exitX=0.5;exitY=1;exitDx=0;exitDy=0;entryX=1;entryY=0;entryDx=0;entryDy=0;" edge="1" parent="7" source="9" target="13">
                    <mxGeometry width="50" height="50" relative="1" as="geometry">
                        <mxPoint x="215" y="310" as="sourcePoint"/>
                        <mxPoint x="265" y="260" as="targetPoint"/>
                    </mxGeometry>
                </mxCell>
                <mxCell id="15" value="DML" style="rounded=1;whiteSpace=wrap;html=1;fillColor=#7F00FF;" vertex="1" parent="7">
                    <mxGeometry x="315" y="145" width="70" height="60" as="geometry"/>
                </mxCell>
                <mxCell id="16" value="DQL" style="rounded=1;whiteSpace=wrap;html=1;fillColor=#7F00FF;" vertex="1" parent="7">
                    <mxGeometry x="415" y="145" width="70" height="60" as="geometry"/>
                </mxCell>
                <mxCell id="18" value="" style="endArrow=classic;html=1;exitX=0.5;exitY=1;exitDx=0;exitDy=0;entryX=1;entryY=0;entryDx=0;entryDy=0;" edge="1" parent="7" source="9" target="15">
                    <mxGeometry width="50" height="50" relative="1" as="geometry">
                        <mxPoint x="165" y="310" as="sourcePoint"/>
                        <mxPoint x="215" y="260" as="targetPoint"/>
                    </mxGeometry>
                </mxCell>
                <mxCell id="17" value="" style="endArrow=classic;html=1;exitX=0.5;exitY=1;exitDx=0;exitDy=0;entryX=0.5;entryY=0;entryDx=0;entryDy=0;" edge="1" parent="7" source="9" target="16">
                    <mxGeometry width="50" height="50" relative="1" as="geometry">
                        <mxPoint x="165" y="310" as="sourcePoint"/>
                        <mxPoint x="215" y="260" as="targetPoint"/>
                    </mxGeometry>
                </mxCell>
                <mxCell id="20" value="DTL" style="rounded=1;whiteSpace=wrap;html=1;fillColor=#7F00FF;" vertex="1" parent="7">
                    <mxGeometry x="615" y="145" width="70" height="60" as="geometry"/>
                </mxCell>
                <mxCell id="19" value="DCL" style="rounded=1;whiteSpace=wrap;html=1;fillColor=#7F00FF;" vertex="1" parent="7">
                    <mxGeometry x="515" y="145" width="70" height="60" as="geometry"/>
                </mxCell>
                <mxCell id="23" value="" style="endArrow=classic;html=1;exitX=0.5;exitY=1;exitDx=0;exitDy=0;entryX=0;entryY=0;entryDx=0;entryDy=0;" edge="1" parent="7" source="9" target="19">
                    <mxGeometry width="50" height="50" relative="1" as="geometry">
                        <mxPoint x="245" y="310" as="sourcePoint"/>
                        <mxPoint x="295" y="260" as="targetPoint"/>
                    </mxGeometry>
                </mxCell>
                <mxCell id="22" value="" style="endArrow=classic;html=1;exitX=0.5;exitY=1;exitDx=0;exitDy=0;entryX=0;entryY=0;entryDx=0;entryDy=0;" edge="1" parent="7" source="9" target="20">
                    <mxGeometry width="50" height="50" relative="1" as="geometry">
                        <mxPoint x="265" y="280" as="sourcePoint"/>
                        <mxPoint x="295" y="260" as="targetPoint"/>
                    </mxGeometry>
                </mxCell>
                <mxCell id="25" value="SELECT" style="rounded=1;whiteSpace=wrap;html=1;fillColor=#7F00FF;" vertex="1" parent="7">
                    <mxGeometry x="180" y="320" width="100" height="80" as="geometry"/>
                </mxCell>
                <mxCell id="26" value="INSERT &lt;br&gt;UPDATE &lt;br&gt;DELETE" style="rounded=1;whiteSpace=wrap;html=1;fillColor=#7F00FF;" vertex="1" parent="7">
                    <mxGeometry x="290" y="320" width="100" height="80" as="geometry"/>
                </mxCell>
                <mxCell id="27" value="CREATE&lt;br&gt;ALTER&lt;br&gt;DROP" style="rounded=1;whiteSpace=wrap;html=1;fillColor=#7F00FF;" vertex="1" parent="7">
                    <mxGeometry x="400" y="320" width="100" height="80" as="geometry"/>
                </mxCell>
                <mxCell id="28" value="BEGIN&lt;br&gt;COMMIT&lt;br&gt;ROLLBACK" style="rounded=1;whiteSpace=wrap;html=1;fillColor=#7F00FF;" vertex="1" parent="7">
                    <mxGeometry x="620" y="320" width="100" height="80" as="geometry"/>
                </mxCell>
                <mxCell id="29" value="GRANT&lt;br&gt;REVOKE" style="rounded=1;whiteSpace=wrap;html=1;fillColor=#7F00FF;" vertex="1" parent="7">
                    <mxGeometry x="510" y="320" width="100" height="80" as="geometry"/>
                </mxCell>
                <mxCell id="30" value="" style="endArrow=classic;html=1;exitX=0.5;exitY=1;exitDx=0;exitDy=0;entryX=0.5;entryY=0;entryDx=0;entryDy=0;" edge="1" parent="7" source="13" target="25">
                    <mxGeometry width="50" height="50" relative="1" as="geometry">
                        <mxPoint x="460" y="110" as="sourcePoint"/>
                        <mxPoint x="295" y="155" as="targetPoint"/>
                    </mxGeometry>
                </mxCell>
                <mxCell id="31" value="" style="endArrow=classic;html=1;exitX=0.5;exitY=1;exitDx=0;exitDy=0;entryX=0.5;entryY=0;entryDx=0;entryDy=0;" edge="1" parent="7" source="15" target="26">
                    <mxGeometry width="50" height="50" relative="1" as="geometry">
                        <mxPoint x="470" y="120" as="sourcePoint"/>
                        <mxPoint x="305" y="165" as="targetPoint"/>
                    </mxGeometry>
                </mxCell>
                <mxCell id="32" value="" style="endArrow=classic;html=1;exitX=0.5;exitY=1;exitDx=0;exitDy=0;entryX=0.5;entryY=0;entryDx=0;entryDy=0;" edge="1" parent="7" source="16" target="27">
                    <mxGeometry width="50" height="50" relative="1" as="geometry">
                        <mxPoint x="480" y="130" as="sourcePoint"/>
                        <mxPoint x="315" y="175" as="targetPoint"/>
                    </mxGeometry>
                </mxCell>
                <mxCell id="33" value="" style="endArrow=classic;html=1;exitX=0.5;exitY=1;exitDx=0;exitDy=0;entryX=0.5;entryY=0;entryDx=0;entryDy=0;" edge="1" parent="7" source="19" target="29">
                    <mxGeometry width="50" height="50" relative="1" as="geometry">
                        <mxPoint x="490" y="140" as="sourcePoint"/>
                        <mxPoint x="325" y="185" as="targetPoint"/>
                    </mxGeometry>
                </mxCell>
                <mxCell id="34" value="" style="endArrow=classic;html=1;exitX=0.5;exitY=1;exitDx=0;exitDy=0;entryX=0.5;entryY=0;entryDx=0;entryDy=0;" edge="1" parent="7" source="20" target="28">
                    <mxGeometry width="50" height="50" relative="1" as="geometry">
                        <mxPoint x="500" y="150" as="sourcePoint"/>
                        <mxPoint x="335" y="195" as="targetPoint"/>
                    </mxGeometry>
                </mxCell>
                <mxCell id="24" value="COMANDOS SQL" style="rounded=0;whiteSpace=wrap;html=1;fillColor=#0000FF;" vertex="1" parent="7">
                    <mxGeometry x="205" y="250" width="490" height="20" as="geometry"/>
                </mxCell>
            </root>
        </mxGraphModel>
    </diagram>
</mxfile>